<svg
   width="200px"
   viewBox="0 0 221.72711 135.91316"
   version="1.1"
   id="svg1"
   xmlns="http://www.w3.org/2000/svg"
   xmlns:svg="http://www.w3.org/2000/svg">
  <defs
     id="defs1" />
  <g
     id="layer1"
     transform="translate(9.57099,-52.022045)">
    <path
       id="circle48"
       style="fill:#000000;stroke-width:5.72053;stroke-linecap:round;stroke-linejoin:round;paint-order:stroke fill markers"
       d="m 101.24395,52.022105 a 12.569077,12.569077 0 0 0 -8.88783,3.68143 l -8.88731,8.887831 8.88783,8.88783 a 12.569077,12.569077 0 0 0 2.39882,1.83141 L 85.73275,104.36 l -0.0289,0.094 -0.006,-10e-4 a 3.2481885,3.2481885 0 0 1 -3.08198,2.24017 3.2481885,3.2481885 0 0 1 -3.24838,-3.24838 3.2481885,3.2481885 0 0 1 0,-10e-4 V 93.654766 A 19.563259,19.563259 0 0 0 59.8041,74.091566 H 1.03043 a 10.601449,10.601449 0 0 0 -10.60142,10.60142 10.601449,10.601449 0 0 0 10.60142,10.60142 h 0.59944 56.39346 c 0.98335,0 1.78077,0.7969 1.78077,1.78025 -10e-6,0.98335 -0.79742,1.78077 -1.78077,1.78077 H 0.22996 C 0.09481,99.526896 0,100.21284 0,100.92455 c 2e-5,5.8549 4.74651,10.6014 10.60142,10.60142 h 2.94866 44.41899 c 0.98335,0 1.78077,0.79691 1.78077,1.78026 -10e-6,0.98335 -0.79742,1.78077 -1.78077,1.78077 H 12.11605 c -0.14655,0.69885 -0.24908,1.41375 -0.24908,2.15645 2e-5,5.855 4.74648,10.6014 10.60142,10.60142 h 2.20504 33.43878 c 0.98333,0 1.78077,0.79693 1.78077,1.78026 -1e-5,0.98335 -0.79744,1.78077 -1.78077,1.78077 H 23.05802 c -0.20905,0.82709 -0.35036,1.6814 -0.35036,2.574 2e-5,5.85485 4.74642,10.6014 10.60142,10.60142 h 41.41401 l -8.70283,9.98026 -14.63942,3.67006 c -1.33741,0.33526 -2.15012,1.69135 -1.81487,3.02876 0.3352,1.33733 1.69186,2.14962 3.02927,1.81436 l 7.68118,-1.92547 -4.74338,5.43946 c -0.90611,1.03919 -0.79837,2.61713 0.24082,3.5233 1.03912,0.90617 2.6161,0.79735 3.52226,-0.24184 l 4.70307,-5.39347 -0.85369,7.79797 c -0.15009,1.37059 0.83916,2.60372 2.20968,2.75384 1.37059,0.15007 2.60375,-0.84012 2.75384,-2.21072 l 1.63453,-14.9288 8.34057,-9.56428 0.0181,0.0346 v 26.45472 c 1e-5,3.61365 2.92961,6.54326 6.54327,6.54327 3.61367,-1e-5 6.54326,-2.92962 6.54327,-6.54327 v -18.98695 l 0.007,0.001 v -7.46983 c 0,-0.98335 0.79692,-1.78076 1.78026,-1.78076 0.98335,1e-5 1.78077,0.79741 1.78077,1.78076 v 33.10547 c 0.0395,3.57976 2.94691,6.47143 6.53603,6.47144 3.61366,-1e-5 6.54326,-2.92955 6.54327,-6.54327 V 156.2405 l 0.007,-0.001 v -7.88117 c 0,-0.98335 0.79691,-1.78076 1.78025,-1.78076 0.98336,1e-5 1.78077,0.79741 1.78077,1.78076 v 26.52758 c 0.0395,3.57969 2.94696,6.47143 6.53603,6.47144 3.61366,-1e-5 6.54275,-2.92962 6.54276,-6.54327 v -26.45472 l 0.0119,-0.0243 8.33179,9.55394 1.63401,14.9288 c 0.15009,1.3706 1.38377,2.36079 2.75436,2.21072 1.37052,-0.15012 2.35925,-1.38325 2.20916,-2.75384 l -0.85317,-7.79797 4.70307,5.39347 c 0.90616,1.03919 2.48308,1.14801 3.52226,0.24184 1.03919,-0.90617 1.14693,-2.48411 0.24082,-3.5233 l -4.74338,-5.43946 7.68066,1.92547 c 1.33741,0.33526 2.69452,-0.47703 3.02979,-1.81436 0.33525,-1.33741 -0.47747,-2.6935 -1.81487,-3.02876 l -14.63994,-3.67006 -8.70231,-9.98026 h 41.429 c 5.85493,-2e-5 10.6014,-4.74657 10.60142,-10.60142 -10e-6,-0.89297 -0.14148,-1.74764 -0.35089,-2.57504 h -35.04695 c -0.98335,0 -1.78076,-0.79742 -1.78077,-1.78077 0,-0.98332 0.79742,-1.78025 1.78077,-1.78025 h 35.64692 c 5.84999,-0.006 10.59106,-4.74893 10.59108,-10.60039 0,-0.74306 -0.10239,-1.45834 -0.24908,-2.15749 h -45.84578 c -0.98335,0 -1.78076,-0.79742 -1.78077,-1.78077 0,-0.98335 0.79742,-1.78025 1.78077,-1.78025 h 47.37024 c 5.85007,-0.006 10.59106,-4.74903 10.59108,-10.60039 0,-0.71209 -0.0948,-1.398374 -0.22996,-2.070154 h -57.78562 c -0.98335,0 -1.78076,-0.79742 -1.78077,-1.78077 0,-0.98335 0.79742,-1.78026 1.78077,-1.78026 h 56.99084 a 10.601449,10.601449 0 0 0 10.59677,-10.60038 10.601449,10.601449 0 0 0 -10.60194,-10.60142 h -58.77367 a 19.563259,19.563259 0 0 0 -19.56315,19.56314 v 9.789074 a 3.2481885,3.2481885 0 0 1 -3.24838,3.24838 3.2481885,3.2481885 0 0 1 -3.08147,-2.23914 l -0.006,0.001 -9.06714,-29.193564 a 12.569077,12.569077 0 0 0 2.31665,-1.78129 12.569077,12.569077 0 0 0 5.2e-4,-17.775661 12.569077,12.569077 0 0 0 -8.88783,-3.68143 z" />
  </g>
</svg>
